<svg xmlns="http://www.w3.org/2000/svg" width="1727" height="2047" style="shape-rendering:geometricPrecision;text-rendering:geometricPrecision;image-rendering:optimizeQuality;fill-rule:evenodd;clip-rule:evenodd"><path style="opacity:1" fill="#010204" d="M965.5 81.5v163h138v-81h69v81h69v409h-138v-82h-138v-81h138v-82h-69v-82h-138v82h-69v-82h-138v82h-69v-245h69v-82h276Z"/><path style="opacity:1" fill="#161717" d="M965.5 81.5h69v82h-69v-82Z"/><path style="opacity:1" fill="#010204" d="M1034.5 81.5h69v82h-69v-82Z"/><path style="opacity:1" fill="#3b3c3c" d="M965.5 163.5h69v81h-69v-81Z"/><path style="opacity:1" fill="#252626" d="M1034.5 163.5h69v81h-69v-81Z"/><path style="opacity:1" fill="#a1a2a0" d="M758.5 326.5v82h-69v-82h69Z"/><path style="opacity:1" fill="#0a0b0c" d="M758.5 326.5h69v82h-69v-82Z"/><path style="opacity:1" fill="#808180" d="M965.5 326.5v82h-69v-82h69Z"/><path style="opacity:1" fill="#c3c4c2" d="M965.5 326.5h69v82h-69v-82Z"/><path style="opacity:1" fill="#eaebe8" d="M620.5 408.5h69v82h-69v-82Z"/><path style="opacity:1" fill="#2d2e2f" d="M689.5 408.5h69v82h-69v-82Z"/><path style="opacity:1" fill="#f1f2ef" d="M758.5 408.5h69v82h-69v-82Z"/><path style="opacity:1" fill="#4f5050" d="M827.5 408.5h69v82h-69v-82Z"/><path style="opacity:1" fill="#010204" d="M896.5 408.5h69v82h-69v-82Z"/><path style="opacity:1" fill="#808180" d="M965.5 408.5h69v82h-69v-82Z"/><path style="opacity:1" fill="#eeefec" d="M1034.5 408.5h69v82h-69v-82Z"/><path style="opacity:1" fill="#010204" d="M620.5 490.5h138v81h-138v-81Z"/><path style="opacity:1" fill="#ebc40b" d="M758.5 490.5h69v245h-69v-245Z"/><path style="opacity:1" fill="#f4d833" d="M827.5 490.5h69v81h-69v-81Z"/><path style="opacity:1" fill="#f5d716" d="M896.5 490.5h69v163h-69v-163Z"/><path style="opacity:1" fill="#7c5605" d="M620.5 571.5h69v82h-69v-82Z"/><path style="opacity:1" fill="#e1a907" d="M689.5 571.5h69v82h-69v-82Z"/><path style="opacity:1" fill="#f5da46" d="M827.5 571.5h69v82h-69v-82Z"/><path style="opacity:1" fill="#8b6105" d="M965.5 571.5h69v82h-69v-82Z"/><path style="opacity:1" fill="#ca9107" d="M1034.5 571.5h69v82h-69v-82Z"/><path style="opacity:1" fill="#010204" d="M620.5 653.5h69v164h-69v-164Z"/><path style="opacity:1" fill="#916305" d="M689.5 653.5h69v82h-69v-82Z"/><path style="opacity:1" fill="#ae7a07" d="M827.5 653.5h69v82h-69v-82Z"/><path style="opacity:1" fill="#d79c06" d="M896.5 653.5h69v82h-69v-82Z"/><path style="opacity:1" fill="#8c8d8b" d="M965.5 653.5h69v82h-69v-82Z"/><path style="opacity:1" fill="#c3c4c2" d="M1034.5 653.5h69v82h-69v-82Z"/><path style="opacity:1" fill="#101111" d="M1103.5 653.5h69v82h-69v-82Z"/><path style="opacity:1" fill="#626363" d="M1172.5 653.5h69v82h-69v-82Z"/><path style="opacity:1" fill="#bcbdba" d="M689.5 735.5h69v82h-69v-82Z"/><path style="opacity:1" fill="#a1a2a0" d="M758.5 735.5h69v82h-69v-82Z"/><path style="opacity:1" fill="#aaaaa8" d="M827.5 735.5h69v82h-69v-82Z"/><path style="opacity:1" fill="#bdbebc" d="M896.5 735.5h69v82h-69v-82Z"/><path style="opacity:1" fill="#f5f6f4" d="M965.5 735.5h69v82h-69v-82Z"/><path style="opacity:1" fill="#fcfcfa" d="M1034.5 735.5h69v82h69v82h-69v81h-69v82h138v82h138v327h-138v82h-69v245h-69v82h-345v-245h-69v-82h-138v-82h-69v-163h69v-164h69v-82h69v-82h-69v-81h69v-82h138v245h69v-163h69v-82h138v-82Z"/><path style="opacity:1" fill="#010204" d="M1103.5 735.5h207v82h69v82h69v81h69v164h69v327h-69v-82h-69v-245h-69v-82h-69v82h-69v-164h-69v-163h-69v-82ZM620.5 817.5v82h-69v-82h69Z"/><path style="opacity:1" fill="#d2d3d1" d="M758.5 817.5h69v82h-69v-82Z"/><path style="opacity:1" fill="#eeefec" d="M827.5 817.5h69v82h-69v-82Z"/><path style="opacity:1" fill="#010204" d="M551.5 899.5v245h-69v-82h-69v-82h69v-81h69Z"/><path style="opacity:1" fill="#f3f4f1" d="M758.5 899.5h69v81h-69v-81Z"/><path style="opacity:1" fill="#e1e2df" d="M1172.5 899.5v81h-69v-81h69Z"/><path style="opacity:1" fill="#cdcecc" d="M551.5 980.5h69v82h-69v-82Z"/><path style="opacity:1" fill="#eeefec" d="M758.5 980.5h69v82h-69v-82Z"/><path style="opacity:1" fill="#eaebe8" d="M1103.5 980.5v82h-69v-82h69Z"/><path style="opacity:1" fill="#c9cac8" d="M1103.5 980.5h69v82h-69v-82Z"/><path style="opacity:1" fill="#fcfdfa" d="M1172.5 980.5h69v82h-69v-82Z"/><path style="opacity:1" fill="#404141" d="M413.5 1062.5h69v82h-69v-82Z"/><path style="opacity:1" fill="#eaebe8" d="M1172.5 1062.5h69v82h-69v-82Z"/><path style="opacity:1" fill="#1d1e1e" d="M1379.5 1144.5h-69v-82h69v82Z"/><path style="opacity:1" fill="#010204" d="M413.5 1144.5h69v164h-69v-82h-69v-82h69ZM1310.5 1144.5h69v245h-69v-245Z"/><path style="opacity:1" fill="#626363" d="M1379.5 1144.5h69v82h-69v-82Z"/><path style="opacity:1" fill="#1d1e1e" d="M344.5 1226.5h69v82h-69v-82Z"/><path style="opacity:1" fill="#f5f5f3" d="M689.5 1226.5h69v327h-69v-327Z"/><path style="opacity:1" fill="#252626" d="M1379.5 1226.5h69v82h-69v-82Z"/><path style="opacity:1" fill="#010204" d="M344.5 1308.5v81h69v82h-138v-163h69Z"/><path style="opacity:1" fill="#353636" d="M344.5 1308.5h69v81h-69v-81ZM1379.5 1308.5h69v81h-69v-81ZM1310.5 1389.5h69v82h-69v-82Z"/><path style="opacity:1" fill="#2d2e2f" d="M1379.5 1389.5h69v82h-69v-82Z"/><path style="opacity:1" fill="#4f5050" d="M1448.5 1389.5h69v82h-69v-82Z"/><path style="opacity:1" fill="#f1b90a" d="M275.5 1471.5h69v82h-69v-82Z"/><path style="opacity:1" fill="#f4bc0b" d="M344.5 1471.5h69v164h69v81h69v164h69v82h-276v-82h-207v-245h138v-82h69v-82Z"/><path style="opacity:1" fill="#010204" d="M413.5 1471.5h69v82h-69v-82Z"/><path style="opacity:1" fill="#b3810d" d="M1241.5 1471.5v82h-69v-82h69Z"/><path style="opacity:1" fill="#f4c020" d="M1241.5 1471.5h69v82h-69v-82Z"/><path style="opacity:1" fill="#010204" d="M1310.5 1471.5h138v164h-138v-164Z"/><path style="opacity:1" fill="#161717" d="M1448.5 1471.5h69v82h-69v-82Z"/><path style="opacity:1" fill="#d39907" d="M137.5 1553.5v82h-69v-82h69Z"/><path style="opacity:1" fill="#eab208" d="M137.5 1553.5h138v82h-138v-82Z"/><path style="opacity:1" fill="#eeb609" d="M413.5 1553.5h69v82h-69v-82Z"/><path style="opacity:1" fill="#010204" d="M482.5 1553.5h138v82h69v163h-69v-82h-69v-81h-69v-82Z"/><path style="opacity:1" fill="#e5e6e4" d="M1172.5 1553.5v163h-69v-163h69Z"/><path style="opacity:1" fill="#ae7a07" d="M1172.5 1553.5h69v82h-69v-82Z"/><path style="opacity:1" fill="#d49d13" d="M1448.5 1553.5h69v82h-69v-82Z"/><path style="opacity:1" fill="#f3bd1f" d="M1517.5 1471.5h69v164h-69v-164Z"/><path style="opacity:1" fill="#e6ae08" d="M68.5 1635.5h69v81h-69v-81Z"/><path style="opacity:1" fill="#ebc40b" d="M482.5 1635.5h69v81h-69v-81Z"/><path style="opacity:1" fill="#a77607" d="M1172.5 1635.5h69v81h-69v-81Z"/><path style="opacity:1" fill="#f1ba1e" d="M1241.5 1553.5h69v163h-69v-163Z"/><path style="opacity:1" fill="#dfa716" d="M1310.5 1635.5h69v81h-69v-81Z"/><path style="opacity:1" fill="#daa215" d="M1379.5 1635.5h69v81h-69v-81Z"/><path style="opacity:1" fill="#f4bf20" d="M1448.5 1635.5h138v81h69v82h-138v82h-276v-164h207v-81Z"/><path style="opacity:1" fill="#efb91d" d="M1586.5 1635.5h69v81h-69v-81Z"/><path style="opacity:1" fill="#d39907" d="M68.5 1716.5h69v82h-69v-82Z"/><path style="opacity:1" fill="#b98307" d="M551.5 1716.5h69v82h-69v-82Z"/><path style="opacity:1" fill="#010204" d="M1103.5 1716.5h69v328h-69v-82h-414v-82h345v-82h69v-82Z"/><path style="opacity:1" fill="#a17106" d="M1172.5 1716.5h69v82h-69v-82Z"/><path style="opacity:1" fill="#efb91d" d="M1655.5 1716.5h69v82h-69v-82Z"/><path style="opacity:1" fill="#eeb609" d="M68.5 1798.5h69v82h-69v-82Z"/><path style="opacity:1" fill="#f1b90a" d="M551.5 1798.5h69v82h-69v-82Z"/><path style="opacity:1" fill="#815a05" d="M620.5 1798.5h69v82h-69v-82Z"/><path style="opacity:1" fill="#ae7a07" d="M1172.5 1798.5h69v82h-69v-82Z"/><path style="opacity:1" fill="#e7b019" d="M1586.5 1798.5v82h-69v-82h69Z"/><path style="opacity:1" fill="#d49d13" d="M1586.5 1798.5h69v82h-69v-82Z"/><path style="opacity:1" fill="#a77607" d="M1655.5 1798.5h69v82h-69v-82Z"/><path style="opacity:1" fill="#c28b07" d="M68.5 1880.5h69v82h-69v-82Z"/><path style="opacity:1" fill="#dba306" d="M137.5 1880.5h69v82h-69v-82Z"/><path style="opacity:1" fill="#eab208" d="M206.5 1880.5h69v82h-69v-82Z"/><path style="opacity:1" fill="#f1b90a" d="M275.5 1880.5h69v82h-69v-82Z"/><path style="opacity:1" fill="#a17106" d="M620.5 1880.5h69v82h-69v-82Z"/><path style="opacity:1" fill="#a77607" d="M1172.5 1880.5h69v82h-69v-82Z"/><path style="opacity:1" fill="#efb91d" d="M1241.5 1880.5h138v82h-138v-82Z"/><path style="opacity:1" fill="#e5ad18" d="M1379.5 1880.5h69v82h-69v-82Z"/><path style="opacity:1" fill="#be8809" d="M1448.5 1880.5h69v82h-69v-82Z"/><path style="opacity:1" fill="#865d05" d="M1517.5 1880.5h69v82h-69v-82Z"/><path style="opacity:1" fill="#916305" d="M275.5 1962.5h69v82h-69v-82Z"/><path style="opacity:1" fill="#a77607" d="M344.5 1962.5h69v82h-69v-82Z"/><path style="opacity:1" fill="#ce9506" d="M413.5 1962.5h69v82h-69v-82Z"/><path style="opacity:1" fill="#dba306" d="M482.5 1962.5h69v82h-69v-82Z"/><path style="opacity:1" fill="#ca9107" d="M551.5 1962.5h69v82h-69v-82Z"/><path style="opacity:1" fill="#6a4a04" d="M620.5 1962.5h69v82h-69v-82Z"/><path style="opacity:1" fill="#624405" d="M1172.5 1962.5h69v82h-69v-82Z"/><path style="opacity:1" fill="#a77607" d="M1241.5 1962.5h69v82h-69v-82Z"/><path style="opacity:1" fill="#b47f05" d="M1310.5 1962.5h69v82h-69v-82Z"/><path style="opacity:1" fill="#966805" d="M1379.5 1962.5h69v82h-69v-82Z"/></svg>